<svg width="77" height="26" viewBox="0 0 77 26" fill="none" xmlns="http://www.w3.org/2000/svg">
<path d="M50.5739 25.0448C52.3967 24.0566 53.9546 22.6319 55.1124 20.8941C55.7069 20.0044 56.199 19.0485 56.579 18.0449C56.9139 17.1421 56.9717 15.0668 58.0226 14.7502C58.6861 14.6682 59.3569 14.6682 60.0204 14.7502H76.0265C76.1438 14.7319 76.2507 14.6716 76.3279 14.5802C76.4051 14.4888 76.4476 14.3723 76.4476 14.2519C76.4476 14.1314 76.4051 14.015 76.3279 13.9236C76.2507 13.8322 76.1438 13.7719 76.0265 13.7536H62.0183C60.5508 13.6186 59.0743 13.6186 57.6068 13.7536C57.2962 13.8157 57.0117 13.9725 56.7909 14.2028C56.5702 14.4332 56.4238 14.7264 56.3712 15.0433C56.0896 16.2939 55.7032 17.5178 55.2163 18.7016C54.1155 21.0229 52.3157 22.9284 50.0773 24.142C49.523 24.4469 50.0773 25.3145 50.5739 25.0097V25.0448Z" fill="#007932"/>
<path d="M50.0773 2.26296C52.2555 3.4493 54.0214 5.28729 55.1355 7.52753C55.6457 8.71056 56.0328 9.94449 56.2904 11.2092C56.4867 11.9362 56.7869 12.5107 57.5722 12.6514C58.9592 12.7746 60.3542 12.7746 61.7412 12.6514H76.0266C76.1438 12.6331 76.2507 12.5728 76.3279 12.4814C76.4052 12.39 76.4476 12.2735 76.4476 12.1531C76.4476 12.0326 76.4052 11.9162 76.3279 11.8248C76.2507 11.7334 76.1438 11.6731 76.0266 11.6548H60.2745C59.5267 11.748 58.7705 11.748 58.0226 11.6548C56.9717 11.3499 56.9717 9.45045 56.6368 8.54761C56.2804 7.53485 55.8034 6.57014 55.2164 5.67496C54.0522 3.87356 52.4647 2.39473 50.597 1.37185C50.0427 1.07872 49.5461 1.93465 50.1004 2.23951L50.0773 2.26296Z" fill="#007932"/>
<path d="M26.9229 24.1772C24.7423 22.9926 22.9786 21.1487 21.8763 18.9009C21.3596 17.7244 20.9723 16.4936 20.7214 15.2309C20.5251 14.504 20.2249 13.9294 19.4396 13.7887C18.0526 13.6655 16.6576 13.6655 15.2706 13.7887H0.973686C0.856449 13.807 0.749541 13.8673 0.672306 13.9588C0.595071 14.0502 0.552612 14.1666 0.552612 14.287C0.552612 14.4075 0.595071 14.5239 0.672306 14.6153C0.749541 14.7067 0.856449 14.767 0.973686 14.7854H16.7257C17.4739 14.6975 18.2295 14.6975 18.9776 14.7854C20.0285 15.1019 20.0285 17.0014 20.3634 17.9042C20.7317 18.9118 21.208 19.8752 21.7839 20.7769C22.9481 22.5783 24.5356 24.0571 26.4033 25.08C26.9691 25.3731 27.4657 24.5172 26.8998 24.2123L26.9229 24.1772Z" fill="#007932"/>
<path d="M26.4264 1.39529C24.6048 2.38017 23.0471 3.80079 21.8878 5.53426C21.2974 6.42646 20.8056 7.38195 20.4212 8.38346C20.1325 9.29802 20.0285 11.3734 18.9776 11.7251C18.3141 11.8072 17.6433 11.8072 16.9798 11.7251H0.973686C0.856449 11.7434 0.749541 11.8037 0.672306 11.8951C0.595071 11.9865 0.552612 12.103 0.552612 12.2234C0.552612 12.3439 0.595071 12.4603 0.672306 12.5517C0.749541 12.6431 0.856449 12.7034 0.973686 12.7217H14.9819C16.4494 12.8567 17.9259 12.8567 19.3934 12.7217C19.7061 12.6617 19.9932 12.5059 20.2161 12.2754C20.4391 12.0448 20.5872 11.7505 20.6406 11.432C20.9167 10.1799 21.3032 8.95552 21.7954 7.77375C22.8962 5.45238 24.6961 3.54694 26.9345 2.3333C27.5004 2.02845 27.0038 1.16079 26.4379 1.46564L26.4264 1.39529Z" fill="#007932"/>
<path d="M38.7946 11.8189C38.7946 11.8189 29.5559 1.38356 38.7946 0.586255C38.7946 0.586255 49.0034 0.386928 38.7946 11.8189Z" stroke="#007932" stroke-miterlimit="10"/>
<path d="M39.4528 12.5107C39.4528 12.5107 46.301 0.304847 49.9503 8.99315C49.9503 8.9697 53.3686 18.7602 39.4528 12.5107Z" stroke="#007932" stroke-miterlimit="10"/>
<path d="M38.1824 12.4286C38.1824 12.4286 31.7384 -3.511e-06 27.7889 8.52415C27.8004 8.52415 24.0588 18.2208 38.1824 12.4286Z" stroke="#007932" stroke-miterlimit="10"/>
<path d="M38.0555 13.1556C38.0555 13.1556 24.6478 16.6028 31.8886 22.5357C31.8886 22.4888 40.2843 28.4451 38.0555 13.1556Z" stroke="#007932" stroke-miterlimit="10"/>
<path d="M39.3719 13.2376C39.3719 13.2376 36.1384 26.8857 44.638 23.1219C44.638 23.1219 53.7497 18.3381 39.3719 13.2376Z" stroke="#007932" stroke-miterlimit="10"/>
<path d="M44.8921 10.7988L39.4528 12.5107" stroke="#007932" stroke-miterlimit="10"/>
<path d="M46.0123 11.7251C46.6501 11.7251 47.1671 11.2002 47.1671 10.5526C47.1671 9.90505 46.6501 9.3801 46.0123 9.3801C45.3745 9.3801 44.8574 9.90505 44.8574 10.5526C44.8574 11.2002 45.3745 11.7251 46.0123 11.7251Z" stroke="#007932" stroke-miterlimit="10"/>
<path d="M41.9935 18.0801L39.1757 13.0618" stroke="#007932" stroke-miterlimit="10"/>
<path d="M42.5478 19.9327C43.1856 19.9327 43.7026 19.4077 43.7026 18.7602C43.7026 18.1126 43.1856 17.5876 42.5478 17.5876C41.91 17.5876 41.3929 18.1126 41.3929 18.7602C41.3929 19.4077 41.91 19.9327 42.5478 19.9327Z" stroke="#007932" stroke-miterlimit="10"/>
<path d="M34.5563 17.8456L37.9977 13.2376" stroke="#007932" stroke-miterlimit="10"/>
<path d="M33.309 19.9327C33.9468 19.9327 34.4639 19.4077 34.4639 18.7602C34.4639 18.1126 33.9468 17.5876 33.309 17.5876C32.6712 17.5876 32.1542 18.1126 32.1542 18.7602C32.1542 19.4077 32.6712 19.9327 33.309 19.9327Z" stroke="#007932" stroke-miterlimit="10"/>
<path d="M32.6277 10.4588L37.9515 12.5107" stroke="#007932" stroke-miterlimit="10"/>
<path d="M30.9993 11.7251C31.6371 11.7251 32.1542 11.2002 32.1542 10.5526C32.1542 9.90505 31.6371 9.3801 30.9993 9.3801C30.3615 9.3801 29.8445 9.90505 29.8445 10.5526C29.8445 11.2002 30.3615 11.7251 30.9993 11.7251Z" stroke="#007932" stroke-miterlimit="10"/>
<path d="M38.7371 5.69839L38.6213 11.4789" stroke="#007932" stroke-miterlimit="10"/>
<path d="M39.0833 5.86254C39.7211 5.86254 40.2381 5.33759 40.2381 4.69003C40.2381 4.04247 39.7211 3.51752 39.0833 3.51752C38.4455 3.51752 37.9285 4.04247 37.9285 4.69003C37.9285 5.33759 38.4455 5.86254 39.0833 5.86254Z" stroke="#007932" stroke-miterlimit="10"/>
</svg>
